<svg t="1595556042421" class="icon" viewBox="0 0 1024 1024" version="1.1" xmlns="http://www.w3.org/2000/svg" p-id="3727" width="200" height="200"><path d="M67.8 667.2h890V713h-890z" fill="#FFFFFF" p-id="3728"></path><path d="M67.8 621.4h890v45.8h-890z" fill="#BF0A30" p-id="3729"></path><path d="M67.8 758.7h890v45.8h-890z" fill="#FFFFFF" p-id="3730"></path><path d="M67.8 804.5h890v45.8h-890z m0-91.6h890v45.8h-890z" fill="#BF0A30" p-id="3731"></path><path d="M67.8 575.6h890v45.8h-890z" fill="#FFFFFF" p-id="3732"></path><path d="M67.8 438.3h890v45.8h-890z" fill="#BF0A30" p-id="3733"></path><path d="M67.8 301h890v45.8h-890z" fill="#FFFFFF" p-id="3734"></path><path d="M67.8 346.7h890v45.8h-890z m0 183.1h890v45.8h-890z m0-274.5h890V301h-890z" fill="#BF0A30" p-id="3735"></path><path d="M67.8 392.5h890v45.8h-890z m0 91.5h890v45.8h-890z" fill="#FFFFFF" p-id="3736"></path><path d="M67.8 255.3h356v320.8h-356z" fill="#002868" p-id="3737"></path><path d="M335.2 272.4l2.4 7.6h8l-6.4 4.7 2.4 7.6-6.4-4.8-6.5 4.8 2.5-7.6-6.4-4.7h7.9z m0 66.6l2.4 7.6h8l-6.4 4.7 2.4 7.6-6.4-4.7-6.5 4.7 2.5-7.6-6.4-4.7h7.9z m0 66.7l2.4 7.6h8l-6.4 4.7 2.4 7.6-6.4-4.7-6.5 4.7 2.5-7.6-6.4-4.7h7.9z m0 68.2l2.4 7.6h8l-6.4 4.6 2.4 7.7-6.4-4.7-6.5 4.7 2.5-7.7-6.4-4.6h7.9z m0 65.1l2.4 7.5h8l-6.4 4.8 2.4 7.5-6.4-4.7-6.5 4.7 2.5-7.5-6.4-4.8h7.9z m-59.6-266.6l2.5 7.6h7.9l-6.4 4.7 2.4 7.6-6.4-4.8-6.4 4.8 2.4-7.6-6.4-4.7h8z m0 66.6l2.5 7.6h7.9l-6.4 4.7 2.4 7.6-6.4-4.7-6.4 4.7 2.4-7.6-6.4-4.7h8z m0 66.7l2.5 7.6h7.9l-6.4 4.7 2.4 7.6-6.4-4.7-6.4 4.7 2.4-7.6-6.4-4.7h8z m0 68.2l2.5 7.6h7.9l-6.4 4.6 2.4 7.7-6.4-4.7-6.4 4.7 2.4-7.7-6.4-4.6h8z m0 65.1l2.5 7.5h7.9l-6.4 4.8 2.4 7.5-6.4-4.7-6.4 4.7 2.4-7.5-6.4-4.8h8z m-59.5-266.6l2.4 7.6h7.9l-6.4 4.7 2.5 7.6-6.4-4.8-6.5 4.8 2.5-7.6-6.5-4.7h8z m0 66.6l2.4 7.6h7.9l-6.4 4.7 2.5 7.6-6.4-4.7-6.5 4.7 2.5-7.6-6.5-4.7h8z m0 66.7l2.4 7.6h7.9L220 418l2.5 7.6-6.4-4.7-6.5 4.7 2.5-7.6-6.5-4.7h8z m0 68.2l2.4 7.6h7.9l-6.4 4.6 2.5 7.7-6.4-4.7-6.5 4.7 2.5-7.7-6.5-4.6h8z m0 65.1l2.4 7.5h7.9l-6.4 4.8 2.5 7.5-6.4-4.7-6.5 4.7 2.5-7.5-6.5-4.8h8z m-59.7-266.6l2.5 7.6h8l-6.5 4.7 2.5 7.6-6.5-4.8-6.4 4.8 2.5-7.6-6.5-4.7h8z m0 66.6l2.5 7.6h8l-6.5 4.7 2.5 7.6-6.5-4.7-6.4 4.7 2.5-7.6-6.5-4.7h8z m0 66.7l2.5 7.6h8l-6.5 4.7 2.5 7.6-6.5-4.7-6.4 4.7 2.5-7.6-6.5-4.7h8z m0 68.2l2.5 7.6h8l-6.5 4.6 2.5 7.7-6.5-4.7-6.4 4.7 2.5-7.7-6.5-4.6h8z m0 65.1l2.5 7.5h8l-6.5 4.8 2.5 7.5-6.5-4.7-6.4 4.7 2.5-7.5-6.5-4.8h8zM96.9 272.4l2.4 7.6h8l-6.5 4.7 2.5 7.6-6.4-4.8-6.5 4.8 2.5-7.6-6.5-4.7h8z m0 66.6l2.4 7.6h8l-6.5 4.7 2.5 7.6-6.4-4.7-6.5 4.7 2.5-7.6-6.5-4.7h8z m0 66.7l2.4 7.6h8l-6.5 4.7 2.5 7.6-6.4-4.7-6.5 4.7 2.5-7.6-6.5-4.7h8z m0 68.2l2.4 7.6h8l-6.5 4.6 2.5 7.7-6.4-4.7-6.5 4.7 2.5-7.7-6.5-4.6h8z m0 65.1l2.4 7.5h8l-6.5 4.8 2.5 7.5-6.4-4.7-6.5 4.7 2.5-7.5-6.5-4.8h8z m268.7-233.3l2.4 7.6h8l-6.4 4.7 2.4 7.6-6.4-4.7-6.5 4.7 2.5-7.6-6.4-4.7h7.9z m0 68.8l2.4 7.6h8l-6.4 4.7 2.4 7.6-6.4-4.7-6.5 4.7 2.5-7.6-6.4-4.7h7.9z m-0.6 67.4l2.4 7.6h8l-6.4 4.7 2.4 7.6-6.4-4.7-6.4 4.7 2.4-7.6-6.4-4.7h7.9z m-0.6 66.6l2.5 7.6h7.9l-6.4 4.7 2.4 7.6-6.4-4.7-6.4 4.7 2.4-7.6-6.4-4.7h7.9zM306 305.7l2.4 7.6h8L310 318l2.4 7.6-6.4-4.7-6.5 4.7 2.5-7.6-6.4-4.7h7.9z m0 68.8l2.4 7.6h8l-6.4 4.7 2.4 7.6-6.4-4.7-6.5 4.7 2.5-7.6-6.4-4.7h7.9z m-0.6 67.4l2.5 7.6h7.9l-6.4 4.7 2.5 7.6-6.5-4.7-6.4 4.7 2.4-7.6-6.4-4.7h7.9z m-0.6 66.6l2.5 7.6h7.9l-6.4 4.7 2.5 7.6-6.5-4.7-6.4 4.7 2.4-7.6-6.4-4.7h7.9z m-58.4-205.2l2.5 7.6h7.9l-6.4 4.7 2.5 7.6-6.5-4.7-6.4 4.7 2.4-7.6-6.4-4.7h7.9z m0 68.8l2.5 7.6h7.9l-6.4 4.7 2.5 7.6-6.5-4.7-6.4 4.7 2.4-7.6-6.4-4.7h7.9z m-0.6 67.4l2.5 7.6h7.9l-6.4 4.7 2.5 7.6-6.5-4.7-6.5 4.7 2.5-7.6-6.4-4.7h7.9z m-0.6 66.7l2.5 7.6h7.9l-6.4 4.6 2.5 7.7-6.5-4.7-6.4 4.7 2.4-7.7-6.4-4.6h7.9z m-58.4-203.5l2.5 7.6h8l-6.5 4.7 2.5 7.5-6.5-4.7-6.4 4.7 2.5-7.5-6.5-4.7h8z m0 68.7l2.5 7.6h8l-6.5 4.7 2.5 7.6-6.5-4.7-6.4 4.7 2.5-7.6-6.5-4.7h8z m-0.6 67.5l2.5 7.5h8l-6.5 4.7 2.5 7.6-6.5-4.7-6.4 4.7 2.4-7.6-6.4-4.7h8z m-0.6 66.6l2.5 7.6h8l-6.5 4.7 2.5 7.6-6.5-4.7-6.4 4.7 2.5-7.6-6.5-4.7h8z m-58.4-204.1l2.5 7.6h8l-6.5 4.7 2.5 7.6-6.5-4.7-6.4 4.7 2.4-7.6-6.4-4.7h8z m0 68.8l2.5 7.6h8l-6.5 4.7 2.5 7.6-6.5-4.7-6.4 4.7 2.4-7.6-6.4-4.7h8z m-0.6 67.5l2.5 7.6h8l-6.5 4.7 2.5 7.6-6.5-4.8-6.4 4.8 2.4-7.6-6.4-4.7h8z m-0.5 66.6l2.4 7.6h8l-6.5 4.7 2.5 7.6-6.4-4.7-6.5 4.7 2.5-7.6-6.5-4.7h8z m268.7-231.9l2.4 7.6h8l-6.4 4.7 2.4 7.6-6.4-4.8-6.5 4.8 2.5-7.6-6.4-4.7h7.9z m0 66.6l2.4 7.6h8l-6.4 4.7 2.4 7.6-6.4-4.7-6.5 4.7 2.5-7.6-6.4-4.7h7.9z m0 66.7l2.4 7.6h8l-6.4 4.7 2.4 7.6-6.4-4.7-6.5 4.7 2.5-7.6-6.4-4.7h7.9z m0 68.2l2.4 7.6h8l-6.4 4.6 2.4 7.7-6.4-4.7-6.5 4.7 2.5-7.7-6.4-4.6h7.9z m0 65.1l2.4 7.5h8l-6.4 4.8 2.4 7.5-6.4-4.7-6.5 4.7 2.5-7.5-6.4-4.8h7.9z" fill="#FFFFFF" p-id="3738"></path></svg>