<?xml version="1.0" encoding="UTF-8"?>
<svg width="527px" height="100px" viewBox="0 0 527 100" version="1.1" xmlns="http://www.w3.org/2000/svg" xmlns:xlink="http://www.w3.org/1999/xlink">
    <title>logo</title>
    <g id="页面-1" stroke="none" stroke-width="1" fill="none" fill-rule="evenodd">
        <g id="编组-8">
            <g id="编组-2" transform="translate(147.000000, 30.000000)">
                <path d="M149.571096,1.8189894e-12 C148.229482,4.68272097 143.947785,7.90996323 139.076665,7.90996323 L126.908809,7.90996323 L126.908809,7.90996323 L124.64258,15.8199265 L141.639296,15.8199265 C140.297682,20.5026474 136.015984,23.7298897 131.144865,23.7298897 L122.376351,23.7298897 L122.376351,23.7298897 L120.110123,31.6398529 L140.506181,31.6398529 C139.164567,36.3225739 134.88287,39.5498162 130.01175,39.5498162 L109.912093,39.5498162 L109.912093,39.5498162 L118.897438,8.1876922 C120.286158,3.34055488 124.718191,1.82346835e-12 129.760342,1.8189894e-12 L149.571096,1.8189894e-12 L149.571096,1.8189894e-12 Z M36.2596597,1.8189894e-12 C34.9180458,4.68272097 30.6363481,7.90996323 25.7652288,7.90996323 L20.9626158,7.90996323 L20.9626158,7.90996323 L14.082294,31.9247907 C12.7890086,36.4388277 8.66154901,39.5498162 3.96590028,39.5498162 L3.96590028,39.5498162 L3.96590028,39.5498162 L13.0308152,7.90996323 L0,7.90996323 C1.34161392,3.22724226 5.62331156,1.81988421e-12 10.4944309,1.8189894e-12 L36.2596597,1.8189894e-12 L36.2596597,1.8189894e-12 Z M73.8540923,7.20610138 L66.9333177,31.362124 C65.544598,36.2092613 61.1125645,39.5498162 56.0704139,39.5498162 L38.0901099,39.5498162 C34.9697156,39.5498162 32.4401362,37.0202368 32.4401362,33.8998424 C32.4401362,33.3734867 32.513688,32.8497129 32.658658,32.3437148 L39.5794326,8.1876922 C40.9681523,3.34055488 45.4001858,1.82169199e-12 50.4423364,1.8189894e-12 L68.4226404,1.8189894e-12 C71.5430347,1.81486348e-12 74.0726141,2.52957941 74.0726141,5.64997374 C74.0726141,6.17632949 73.9990623,6.70010327 73.8540923,7.20610138 Z M89.5160348,1.8189894e-12 L84.4727856,17.6007982 L98.768086,5.40610389 C102.858476,1.9167712 108.058857,1.83063519e-12 113.435356,1.8189894e-12 L115.775394,1.8189894e-12 L115.775394,1.8189894e-12 L94.3920688,18.2415052 L101.828456,39.5498162 L101.042707,39.5498162 C96.2371115,39.5498162 91.9572132,36.5103994 90.3737853,31.9731646 L87.6026903,24.0327283 L87.6026903,24.0327283 L81.0214811,29.6471072 L80.3690812,31.9246752 C79.0760488,36.4387306 74.9486873,39.5498162 70.2530906,39.5498162 L70.2530906,39.5498162 L70.2530906,39.5498162 L79.3996411,7.62502542 C80.6929265,3.11098845 84.8203861,1.81985198e-12 89.5160348,1.8189894e-12 L89.5160348,1.8189894e-12 L89.5160348,1.8189894e-12 Z M163.804712,1.8189894e-12 L173.366498,27.6848713 L179.113705,7.62502542 C180.406991,3.11098845 184.53445,1.81985198e-12 189.230099,1.8189894e-12 L189.230099,1.8189894e-12 L189.230099,1.8189894e-12 L179.071855,35.4559701 C178.377495,37.8795387 176.161478,39.5498162 173.640403,39.5498162 L168.259551,39.5498162 L168.259551,39.5498162 L159.283505,13.559937 L154.021918,31.9247907 C152.728633,36.4388277 148.601173,39.5498162 143.905524,39.5498162 L143.905524,39.5498162 L143.905524,39.5498162 L154.063769,4.0938461 C154.758128,1.67027744 156.974145,1.8158998e-12 159.49522,1.8189894e-12 L163.804712,1.8189894e-12 L163.804712,1.8189894e-12 Z M65.7206332,7.90996323 L47.5908033,7.90996323 L40.7921171,31.6398529 L58.921947,31.6398529 L65.7206332,7.90996323 Z" id="形状结合备份-19" fill="#FFFFFF" fill-rule="nonzero"></path>
                <path d="M240.220245,-9.60653779e-12 C238.878631,4.68272097 234.596934,7.90996323 229.725814,7.90996323 L217.557958,7.90996323 L217.557958,7.90996323 C214.948683,7.90996323 212.588675,9.4346433 211.892386,11.8649449 C211.29402,13.9534598 212.338581,15.8199265 215.291729,15.8199265 L224.356644,15.8199265 C231.264361,15.8479476 235.292734,21.1537916 233.421559,27.6848713 C231.561109,34.1785212 224.614557,39.4435754 217.557958,39.5498162 L194.895671,39.5498162 C196.237285,34.8670952 200.518982,31.6398529 205.390102,31.6398529 L218.691072,31.6398529 L218.691072,31.6398529 C221.226205,31.6398529 223.67761,30.0549496 224.356644,27.6848713 C225.014915,25.3872682 223.492434,23.7298897 220.957301,23.7298897 L211.892386,23.7298897 C204.836895,23.9978412 201.016119,18.1872231 202.827471,11.8649449 C204.705389,5.31032878 211.573095,0.105034933 218.124515,-9.60653779e-12 L240.220245,-9.60653779e-12 Z M278.450958,-9.60298507e-12 L278.34145,27.1198739 L290.778881,5.63806193 C292.799215,2.14856032 296.525869,-9.60757345e-12 300.558036,-9.60298507e-12 L302.541535,-9.60298507e-12 L282.58835,33.9726242 C280.559038,37.4277652 276.851699,39.5498162 272.844692,39.5498162 L270.247776,39.5498162 L269.681219,15.8199265 L258.805173,34.0413786 C256.76609,37.4576077 253.080726,39.5498162 249.102224,39.5498162 L246.452374,39.5498162 L245.885817,-9.60298507e-12 C250.587513,-9.60384876e-12 254.406836,3.79659387 254.434899,8.49820636 L254.546048,27.1198739 L270.74238,-9.60298507e-12 L278.450958,-9.60298507e-12 Z M325.063721,-1.1937118e-11 L330.869395,39.5498162 L328.829499,39.5498162 C324.983729,39.5498162 321.709616,36.7852858 321.045229,33.0221813 L321.004825,32.7698477 L304.959359,32.7698477 L303.480345,34.8331737 C301.358138,37.7937994 297.938852,39.5498162 294.296179,39.5498162 L291.210392,39.5498162 L316.53134,4.37133529 C318.506868,1.62672729 321.682067,-1.19395003e-11 325.063721,-1.1937118e-11 Z M370.528397,-7.27595761e-12 C377.099316,-7.27595761e-12 380.90416,5.31211675 379.026755,11.8649449 C377.187277,18.2853926 370.575317,23.5147524 363.935083,23.724992 L363.729711,23.7298897 L348.999224,23.7298897 L346.65136,31.9247907 C345.385018,36.3447853 341.401363,39.4195827 336.827684,39.5457808 L336.534966,39.5498162 L345.520311,8.1876922 C346.909031,3.34055488 351.341064,-7.26970232e-12 356.383215,-7.27595761e-12 L370.528397,-7.27595761e-12 Z M318.324495,14.1249343 L310.628896,24.8598844 L319.867744,24.8598844 L318.324495,14.1249343 Z M368.262169,7.90996323 L353.531682,7.90996323 L351.265453,15.8199265 L365.99594,15.8199265 C368.186246,15.8199265 370.469153,14.0492209 371.094955,11.8649449 C371.694953,9.77073228 370.553844,8.05668808 368.400954,7.91674642 L368.262169,7.90996323 Z" id="形状结合" fill="#00D9C7"></path>
            </g>
            <g id="编组-7" fill="#00D9C7">
                <path d="M126.701442,0 C118.334046,12.4080783 104.24755,19.8607525 89.3578588,19.9504129 L75.6149432,19.9504129 C69.5680599,19.9504129 64.2822178,24.0294381 62.7491955,29.8787663 L50.0137269,78.4716242 L50.0137269,78.4716242 C46.4545261,90.3843971 35.843819,99.0002221 23.3397392,99.7520647 L44.6789294,19.9504129 C48.1580702,8.19988729 58.6466466,0.125572575 70.6860674,0 L126.701442,0 Z" id="形状备份-10"></path>
                <path d="M124.944033,19.1830894 L115.72407,51.56463 C112.349945,63.4103005 101.713176,71.5150429 89.7169317,71.5150429 L57.7081465,71.5150429 C66.0821812,58.9401368 80.1798547,51.4921694 95.0517292,51.56463 L98.2700453,40.4635298 C101.810905,28.5448407 112.430031,19.9344571 124.944033,19.1830894 Z" id="路径备份-10" opacity="0.5"></path>
                <path d="M44.6789294,0 C41.5334213,11.7643601 30.8498471,19.9500211 18.6717914,19.9504129 L0,19.9504129 C3.96254887,8.03650703 15.0873658,0.000480559438 27.3408374,0 L44.6789294,0 Z" id="路径备份-11"></path>
            </g>
        </g>
    </g>
</svg>