<?xml version="1.0" encoding="UTF-8"?>
<svg width="24px" height="24px" viewBox="0 0 24 24" version="1.1" xmlns="http://www.w3.org/2000/svg" xmlns:xlink="http://www.w3.org/1999/xlink">
    <title>mouse</title>
    <g id="页面-1" stroke="none" stroke-width="1" fill="none" fill-rule="evenodd">
        <g id="Home备份-5" transform="translate(-708.000000, -960.000000)" fill="#FFFFFF" fill-rule="nonzero">
            <g id="鼠标" transform="translate(708.000000, 960.000000)">
                <rect id="矩形" opacity="0" x="0" y="0" width="24" height="24"></rect>
                <path d="M20.25,8.25 L18.75,8.25 C18.75,4.52207794 15.7279221,1.5 12,1.5 C8.27207794,1.5 5.25,4.52207794 5.25,8.25 L3.75,8.25 C3.75,3.69365081 7.44365081,-2.66453526e-15 12,-2.66453526e-15 C16.5563492,-2.66453526e-15 20.25,3.69365081 20.25,8.25 L20.25,8.25 Z M12,24 C7.44365081,24 3.75,20.3063492 3.75,15.75 L3.75,9.75 L5.25,9.75 L5.25,15.75 C5.25,19.4779221 8.27207794,22.5 12,22.5 C15.7279221,22.5 18.75,19.4779221 18.75,15.75 L18.75,9.75 L20.25,9.75 L20.25,15.75 C20.25,20.3063492 16.5563492,24 12,24 Z" id="形状"></path>
                <polygon id="路径" points="11.25 4.5 12.75 4.5 12.75 10.5 11.25 10.5"></polygon>
            </g>
        </g>
    </g>
</svg>