<svg t="1576736851666" class="icon" viewBox="0 0 1024 1024" version="1.1" xmlns="http://www.w3.org/2000/svg" p-id="7077" width="32" height="32"><path d="M10.24 174.0288h993.28V834.56H10.24z" fill="#FF0000" p-id="7078"></path><path d="M166.7072 270.8992l29.9008 63.744 66.9184 10.24-48.4352 49.6128 11.4688 70.0928-59.8528-33.0752-59.904 33.0752 11.4688-70.0928-48.4352-49.6128 66.9184-10.24zM410.0096 417.4336l8.448 17.9712 18.8928 2.8672-13.6704 13.9776 3.2256 19.7632-16.896-9.3184-16.8448 9.3184 3.2256-19.7632-13.6704-13.9776 18.8928-2.8672zM346.112 248.1664l0.8192 19.8656 16.2816 9.9328-17.9712 7.68-4.7104 19.456-11.9296-15.1552-19.2 2.0992 10.5984-16.9984-7.168-18.176 18.5344 4.6592zM433.2544 328.5504l-10.8544 16.64 7.4752 17.5616-19.0464-4.2496-15.104 13.1584-0.9728-19.3024-16.8448-9.4208 18.5344-7.68 4.7104-18.944 12.3904 14.4896zM367.8208 522.5472l-18.2272 7.8848-3.4816 18.7904-13.568-14.08-19.8656 2.56 9.8304-16.5376-8.7552-17.2032 19.6096 3.84 14.4384-13.2096 2.304 18.944z" fill="#FFFF00" p-id="7079"></path></svg>