<?xml version="1.0" encoding="UTF-8"?>
<svg width="16px" height="25px" viewBox="0 0 16 25" version="1.1" xmlns="http://www.w3.org/2000/svg" xmlns:xlink="http://www.w3.org/1999/xlink">
    <title>编组</title>
    <defs>
        <polygon id="path-1" points="0 0 11.438 0 11.438 24.9986309 0 24.9986309"></polygon>
        <polygon id="path-3" points="-8.75088501e-05 0.407814677 6.911625 0.407814677 6.911625 14.9330714 -8.75088501e-05 14.9330714"></polygon>
    </defs>
    <g id="页面-1" stroke="none" stroke-width="1" fill="none" fill-rule="evenodd">
        <g id="Home备份-5" transform="translate(-770.000000, -534.000000)">
            <g id="编组" transform="translate(770.000000, 534.000000)">
                <g>
                    <mask id="mask-2" fill="white">
                        <use xlink:href="#path-1"></use>
                    </mask>
                    <g id="Clip-2"></g>
                    <path d="M11.438,7.69288462 C11.438,4.10442308 9.569,1.01692308 8.148,0.0121153846 C8.142,0.00923076923 8.041,-0.0455769231 8.049,0.0986538462 C8.049,0.100576923 8.047,0.100576923 8.047,0.101538462 C7.93,7.03326923 4.147,8.91115385 2.067,11.4419231 C-2.733,17.2823077 1.731,23.6842308 6.277,24.8659615 C8.822,25.5275 5.69,23.6948077 5.287,19.8207692 C4.798,15.14 11.438,11.5678846 11.438,7.69288462" id="Fill-1" fill="#FFFFFF" mask="url(#mask-2)"></path>
                </g>
                <g transform="translate(9.000000, 10.000000)">
                    <mask id="mask-4" fill="white">
                        <use xlink:href="#path-3"></use>
                    </mask>
                    <g id="Clip-4"></g>
                    <path d="M4.0648125,0.424386667 C4.0394375,0.40572 4.0035625,0.39452 3.9781875,0.437453333 C3.9090625,1.28398667 3.0760625,3.09558667 2.0199375,4.75972 C-1.5614375,10.4007867 0.4790625,13.1214533 1.6279375,14.58212 C2.2938125,15.43052 1.6279375,14.58212 3.2930625,13.7150533 C3.4225625,13.64692 6.5436875,11.8315867 6.8805625,7.69225333 C7.2095625,3.68545333 4.8899375,1.15892 4.0648125,0.424386667" id="Fill-3" fill="#326BF4" mask="url(#mask-4)"></path>
                </g>
            </g>
        </g>
    </g>
</svg>