<svg t="1577173228738" class="icon" viewBox="0 0 1024 1024" version="1.1" xmlns="http://www.w3.org/2000/svg" p-id="7853" width="32" height="32"><path d="M927.996 544.002H640.001c-52.94 0-96.004 43.059-96.004 95.999v287.995c0 52.93 43.059 95.999 96.004 95.999h287.995c52.935 0 95.999-43.069 95.999-95.999V640.001c0-52.94-43.064-95.999-95.999-95.999zM383.994 0H96C43.064 0 0 43.059 0 95.999v287.995c0 52.935 43.064 95.999 95.999 95.999h287.995c52.94 0 96.004-43.064 96.004-95.999V96C479.998 43.059 436.939 0 383.994 0z m32 384a32.03 32.03 0 0 1-32 31.999H96a32.035 32.035 0 0 1-32-32.005V96a32.035 32.035 0 0 1 32-32h287.995c17.664 0 32 14.356 32 32v287.995zM928 0H640.006c-52.94 0-96.004 43.059-96.004 95.999v287.995c0 52.935 43.059 95.999 95.999 95.999h287.995c52.94 0 95.999-43.064 95.999-95.999V96c0-52.94-43.059-95.999-95.999-95.999z m32 384a32.025 32.025 0 0 1-32 31.999H640.006a32.03 32.03 0 0 1-32.015-32.005V96a32.03 32.03 0 0 1 32-32h287.995a32.025 32.025 0 0 1 32 32v287.995zM383.984 544.001H95.999C43.069 544.002 0 587.061 0 640.001v287.995c0 52.93 43.069 95.999 95.999 95.999h287.995c52.94 0 96.004-43.064 96.004-95.999V640.001c0-52.94-43.059-95.999-95.999-95.999z m32.005 383.994a32.03 32.03 0 0 1-32 32H96a32.035 32.035 0 0 1-32-32V640.001a32.04 32.04 0 0 1 32-32.01h287.995c17.659 0 32 14.356 32 32.01v287.995z m543.997 0a32.025 32.025 0 0 1-32 32H639.99a32.03 32.03 0 0 1-32-32V640.001a32.03 32.03 0 0 1 32-32.01h287.996a32.03 32.03 0 0 1 32 32.01v287.995z" fill="#1296db" p-id="7854"></path></svg>