<svg t="1577426247422" class="icon" viewBox="0 0 1024 1024" version="1.1" xmlns="http://www.w3.org/2000/svg" p-id="2498" width="32" height="32"><path d="M4.198 849.05h1015.604V173.722H4.198z m1017.19 1.69zM0 853.247V168.653h1024v683.673H0z" fill="#353636" p-id="2499"></path><path d="M2.509 171.213h1019.699v679.526H2.508z" fill="#FFFFFF" p-id="2500"></path><path d="M678.707 495.411a167.834 167.834 0 1 1-182.323-152.013 167.834 167.834 0 0 1 182.323 152.013z" fill="#CC303C" p-id="2501"></path><path d="M368.742 424.038a83.814 83.814 0 1 0 143.821 86.528 83.866 83.866 0 0 1 143.36 86.528 167.782 167.782 0 0 1-230.4 56.32 165.94 165.94 0 0 1-56.78-229.478z" fill="#005C9E" p-id="2502"></path><path d="M155.7 375.962l93.951-139.264 21.607 14.54-93.952 139.213z m33.586 22.579l93.952-139.264 21.607 14.592-93.952 139.264z m33.28 22.937l21.812 14.285 94.105-139.417-21.913-15.36zM735.744 650.24l43.725-64.768 21.555 14.49-43.725 64.768z m-50.33 75.93l43.623-64.768 21.606 14.438-43.52 64.768z m83.456-52.634l43.725-64.717 21.658 14.592-43.725 64.717z m-49.868 74.803l21.81 14.285 43.674-64.666-21.81-14.284z m83.61-52.173l43.622-64.768 21.555 14.541-43.674 64.717z m-50.484 74.752l43.469-64.87 21.657 14.438-43.57 64.768z m61.03-357.734l21.965-14.285-94.208-139.417-21.811 14.284zM752.282 250.88l21.401-14.54 43.725 64.716-21.555 14.592z m50.79 75.571l21.811-14.54 43.776 64.716-21.555 14.592z m-117.76-30.157l21.402-14.694 43.622 64.82-21.606 14.54z m50.227 74.701l21.607-14.54 43.622 64.767-21.555 14.644zM222.106 600.576l21.555-14.49L337.715 725.3l-21.606 14.592z m-66.56 44.749l21.606-14.541 93.85 139.315-21.607 14.541z m33.228-21.709l21.71-14.336 43.673 64.768-21.607 14.54z m93.952 138.906l21.812-14.285-43.572-64.666-21.81 14.285z" fill="#231815" p-id="2503"></path></svg>